/* XPM */
static xpm_row_t const cursor_[] = {
/* columns rows colors chars-per-pixel */
"39 56 248 2 ",
"   c #783818",
".  c #763615",
"X  c #783B24",
"o  c #7B4119",
"O  c #336076",
"+  c #4D5E6D",
"@  c #625E7D",
"#  c #5A6A7B",
"$  c #486874",
"%  c #97120A",
"&  c #AB0A05",
"*  c #B70505",
"=  c #AD190C",
"-  c #982B19",
";  c #863918",
":  c #902A0E",
">  c #A72817",
",  c #B82717",
"<  c #B23010",
"1  c #833926",
"2  c #AB382B",
"3  c #C90306",
"4  c #D1060B",
"5  c #E30808",
"6  c #FB1D0B",
"7  c #F71C07",
"8  c #FB1E14",
"9  c #F30E0B",
"0  c #C8260C",
"q  c #C82716",
"w  c #D4281D",
"e  c #D23613",
"r  c #F3220C",
"t  c #F72509",
"y  c #F52315",
"u  c #F42B1C",
"i  c #F7281A",
"p  c #F2361B",
"a  c #E82D0F",
"s  c #DE2821",
"d  c #F72A24",
"f  c #E93727",
"g  c #F43225",
"h  c #F73327",
"j  c #F73935",
"k  c #EA2E2A",
"l  c #89431B",
"z  c #87461A",
"x  c #96491B",
"c  c #B6451D",
"v  c #A5551B",
"b  c #B55F1A",
"n  c #874623",
"m  c #984B24",
"M  c #9B5324",
"N  c #9E5431",
"B  c #AB5B2A",
"V  c #A85827",
"C  c #B25924",
"Z  c #AE4B2D",
"A  c #AE6326",
"S  c #B76227",
"D  c #BB6A34",
"F  c #AE6634",
"G  c #EE4E1D",
"H  c #CE661D",
"J  c #EF731D",
"K  c #C34927",
"L  c #C85F25",
"P  c #CA5632",
"I  c #DD5334",
"U  c #EB4C24",
"Y  c #F45529",
"T  c #F9453C",
"R  c #F8583E",
"E  c #EB512C",
"W  c #CA6A2A",
"Q  c #D36A27",
"!  c #C9732D",
"~  c #DD7B2C",
"^  c #D97629",
"/  c #D56E31",
"(  c #CC7235",
")  c #DC7534",
"_  c #DE7E34",
"`  c #DE7E3B",
"'  c #D57738",
"]  c #C96834",
"[  c #EC692C",
"{  c #E67E26",
"}  c #EB7B25",
"|  c #E47E2D",
" . c #EA7B2C",
".. c #E8752E",
"X. c #EA6A35",
"o. c #E37D33",
"O. c #EA7A33",
"+. c #E37C3A",
"@. c #EA7B39",
"#. c #E87537",
"$. c #F27433",
"%. c #F36F2D",
"&. c #FE3F4C",
"*. c #956B52",
"=. c #BC7849",
"-. c #B27657",
";. c #877375",
":. c #AD6757",
">. c #FD4D4A",
",. c #FA4A43",
"<. c #FE544D",
"1. c #F8574A",
"2. c #FD5454",
"3. c #FC545A",
"4. c #F85953",
"5. c #C8674A",
"6. c #CB7A49",
"7. c #D37B4D",
"8. c #D97B44",
"9. c #D67A57",
"0. c #CA7254",
"q. c #E96747",
"w. c #E37945",
"e. c #EF7B5B",
"r. c #EB7665",
"t. c #CD796A",
"y. c #DD812D",
"u. c #DD8225",
"i. c #DC8133",
"p. c #DB823C",
"a. c #D7853C",
"s. c #CE8635",
"d. c #E2802C",
"f. c #E28125",
"g. c #E18132",
"h. c #E2833D",
"j. c #E9863B",
"k. c #A3845F",
"l. c #98887F",
"z. c #B78772",
"x. c #AC8D70",
"c. c #D58442",
"v. c #DC8341",
"b. c #D5834A",
"n. c #DA884C",
"m. c #C88352",
"M. c #D98A56",
"N. c #DA9459",
"B. c #CD8B4D",
"V. c #E28243",
"C. c #E58A46",
"Z. c #E48C4B",
"A. c #EA8C4C",
"S. c #E88549",
"D. c #E7914B",
"F. c #E58B58",
"G. c #E4925B",
"H. c #EB945A",
"J. c #EC9C5B",
"K. c #E49B5A",
"L. c #F1985A",
"P. c #F28756",
"I. c #EAA05E",
"U. c #E7A15B",
"Y. c #D68768",
"T. c #DD9B63",
"R. c #DB9768",
"E. c #CA9576",
"W. c #D69A77",
"Q. c #C68D68",
"!. c #E68C65",
"~. c #E49C63",
"^. c #EC9D64",
"/. c #E49D6B",
"(. c #EB9D69",
"). c #E6956A",
"_. c #F29865",
"`. c #E89C78",
"'. c #E28E71",
"]. c #DCA676",
"[. c #DDA367",
"{. c #E5A164",
"}. c #EBA36B",
"|. c #E5A369",
" X c #EAAC7D",
".X c #E6A778",
"XX c #E7B47D",
"oX c #F1AB74",
"OX c #3B6897",
"+X c #1277AB",
"@X c #0F5E83",
"#X c #465980",
"$X c #50708A",
"%X c #6E7587",
"&X c #778592",
"*X c #7A9A96",
"=X c #5898B0",
"-X c #709DA8",
";X c #73A2A9",
":X c #1196CE",
">X c #38ADCC",
",X c #0B9FE2",
"<X c #0DABE5",
"1X c #16B1ED",
"2X c #3FB7E3",
"3X c #16AFDB",
"4X c #699CC0",
"5X c #7BAFCF",
"6X c #5FB3CB",
"7X c #948D8A",
"8X c #A6958D",
"9X c #AFA89B",
"0X c #AEAFA8",
"qX c #9EA7AB",
"wX c #D29A84",
"eX c #D7AA84",
"rX c #DBB487",
"tX c #DCB793",
"yX c #C8A990",
"uX c #EAAC83",
"iX c #E7A986",
"pX c #E5B383",
"aX c #E4B38B",
"sX c #ECB48D",
"dX c #ECBB8C",
"fX c #E8B887",
"gX c #F2B784",
"hX c #E6AC95",
"jX c #EABC93",
"kX c #E9B797",
"lX c #F3B997",
"zX c #F2A588",
"xX c #D7B8A6",
"cX c #EABCA5",
"vX c #ECC29C",
"bX c #EAC496",
"nX c #F3C195",
"mX c #F2C59A",
"MX c #E7C38F",
"NX c #ECC4A6",
"BX c #F3C5A3",
"VX c #EACDB8",
"CX c #F4C9B4",
"ZX c #EED2B0",
"AX c #A8BBC1",
"SX c #81AEC2",
"DX c #F6E1CF",
"FX c None",
/* pixels */
"FXFXFXFXFXFXFXFXFXFXFXFXFXFXFXFXFXFXFXFXFXFXFXFXFXFXFXFXFXFXFXFXFXFXFXFXFXFXFX",
"FXFXFXFXFXFXFXFXFXFXFXFXFXFXFXFXFXFXFXFXFXFXFX> , q q ; FXFXFXFXFXFXFXFXFXFXFX",
"FXFXFXFXFXFXFXFXFXFXFXFXFXFXFXFXFXFXFXFXFXFX, j 1.T h q - FXFXFXFXFXFXFXFXFXFX",
"FXFXFXFXFXFXFXFXFXFXFXFXFXFXFXFXFXFXFXFX: q &.2.3.2.1.j q X FXFXFXFXFXFXFXFXFX",
"FXFXFXFXFXFXFXFXFXFXFXFXFXFXFXFXFXFXFX- s ,.<.<.2.2.2.>.f - FXFXFXFXFXFXFXFXFX",
"FXFXFXFXFXFXFXFXFXFXFXFXFXFXFXFXFXFX> s ,.4.2.<.1.q.2.3.>.w : FXFXFXFXFXFXFXFX",
"FXFXFXFXFXFXFXFXFXFXFXFXFXFXFXFXFX> s R 2.4.3.3.3.2.3.4.2.,., . FXFXFXFXFXFXFX",
"FXFXFXFXFXFXFXFXFXFXFXFXFXFXFXFX, g 1.1.2.<.>.&.<.1.1.3.4.4.k - FXFXFXFXFXFXFX",
"FXFXFXFXFXFXFXFXFXFXFXFXFXFXFX> g 2.3.4.1.f 6 7 u >.>.,.>.<.>.s . FXFXFXFXFXFX",
"FXFXFXFXFXFXFXFXFXFXFXFXFXFX0 y h T 3.3.j y U Y t u i 6 d >.2.d , X FXFXFXFXFX",
"FXFXFXFXFXFXFXFXFXFXFXFXFX, r.e.i i <.<.i p ..o.p r p U y j j h 8 - FXFXFXFXFX",
"FXFXFXFXFXFXFXFXFXFXFXFX; 0.cXn.J i >.T t G [ [ E k ).gXR i 8 i i e   FXFXFXFX",
"FXFXFXFXFXFXFXFXFXFXFXFXF fXBXiX`.d f h f !.a 5 7.P.).p.U r t 8 i y > FXFXFXFX",
"FXFXFXFXFXFXFXFXFXFXFXn ! aXuX[.).d d d Y F.> & K +.d.g.Y t 7 6 y g w - FXFXFX",
"FXFXFXFXFXFXFXFXFXFXFXn D ` CXuX[ 7 6 8 [ o.Q W @.y.{ o.[ r 6 6 t g u 0 1 FXFX",
"FXFXFXFXFXFXFXFXFXFXFXFXl ^ N.NXuXE t f $.{ | +.i.o.8.+.| U r u E P.r.q 1 FXFX",
"FXFXFXFXFXFXFXFXFXFXFXFXz / XXL.).zXr.@.O.#.o.u.i.z.*Xk.+.$.X.X.n.jX'.P X FXFX",
"FXFXFXFXFXFXFXFXFXFXFXFXb M.bXp.w.D.jX!.y P Z.| 8.=X<X$ b.` f.@.dXN.^ n FXFXFX",
"FXFXFXFXFXFXFXFXFXFXFXC a.jXN.@._.{._.K 3 2 lXdXpX8XOX7X.X.XaXcXeXV FXFXFXFXFX",
"FXFXFXFXFXFXFXFXFXFXV p.dX~.+.K.U._.I.M.B 9.~.B.N.T.E.wX/.kXZXCXT.N FXFXFXFXFX",
"FXFXFXFXFXFXFXFXFXV B.jXR.o.C._.^.J.^.^._.L.C.O. .J a a .X.Xa.^.R.F FXFXFXFXFX",
"FXFXFXFXFXFXFXFXV X.q.9.p.Z._.U.W.5X;XW.^.C._ G.tXeX3 * D ) o.A.aX^ x FXFXFXFX",
"FXFXFXFXFXFXFXZ F.I 9 2 NXCXVXZX0X3X+X9XbXmXvXXXA.#.c c ) d.d.v.lXF.v FXFXFXFX",
"FXFXFXFXFXFXN M.NXZ % 5.lX|.}.}.wX# %XE.O.{ g.o.f.{ +.+. .O. .f.|.lX! l FXFXFX",
"FXFXFXFXFX; ' bXn.+.^ C.aXBXmXuX{.[.P.$._ o.| o.p.| | d.f.o.` d.a.sXeXA FXFXFX",
"FXFXFXFXFXM ~ vX| i.o.H.}.{. XCXmXlXg 0 ' o.{ $.| p.x.7Xm.| f.%._ 8X6X-.N FXFX",
"FXFXFXFXFXM ~ dX+.g.~ J.(.~.J.}.T.5.3 & Y.dXuX].R.z.>X<X;.R..XgXcX4X,X$Xk.FXFX",
"FXFXFXFXFXz ' G.sXv.y.K.^.^.{.A.f.) Z c ' B.T.zXuXeX# @Xz. XeXtXVX-.+ 8Xn.b FX",
"FXFXFXFXFXFXV ..R.BXC.F.{.^.A.| g.| +.@. . .f.} { +.) 0.R.kXkX{.` i.7.aX/.W FX",
"FXFXFXFXFXFXFXM +.yX9Xw.C.j.i.+.} s.o.+.{ +.p.` v.X.9 q .XS.` o. .g.+.W..X..FX",
"FXFXFXFXFXFXFXx b.>X3Xl.L.G.F.n.Y.;Xl.M.N.^.XXbXNXt.* & / | | {  .} o.aXK.| FX",
"FXFXFXFXFXFXFXS ' OX+X7X].kXlXlXqX<X+X9XaX].D.d.~ ..L ] @.| c._ | ..v.nXa.W FX",
"FXFXFXFXFXFXn d.N.xX-.rXmX].x.m.=.#X+ 7.} | o.o.+.` o.i.| O.} p.c.g.MX).( FXFX",
"FXFXFXFXFX. ( v.lXZ.A.J.hX5X1X%Xv.7.a.y.i.y.~ |  . .| | i.+.} +.| sXN.Q M FXFX",
"FXFXFXFX  F h.lXR.Z.{.I.}.%X+X$XfXT.o.$.G I o._ O.d.i.i._ +.d. .M.aXa.x FXFXFX",
"FXFXFX  S V.vX).S.J.J.I.I.].x.E.G.oXnXY.5 3 H | +.O.8X5X7Xp.g.o.F.G.!   FXFXFX",
"FXFXFXV G g 5.w.~.~.(.(.{.{.}.J.+.#.a.7.> > hXjX|.|.&X,XOXM.H.q.9 q ] X FXFXFX",
"FXFXx 7.2 4 Z uX{.|.(._._.U.(.H.o.o.d.O.#._ v.C.U.}.t.$Xl.tXNXE.= % 8.; FXFXFX",
"FXn ]  XY.c W.DXCXvX!.8 I [.L.C.g.d.i.v.~ .. .} +.$.@.R.XXNX].p.K W.].C   FXFX",
"FXz B.dX+.g.K.kXmXMX5.4 > zXsX^.M.m.x.-Xk.c.B..X!.a I eXY.y.{ ` g.V.mXM.n FXFX",
"FXC pXR. .o.^.^.iXCXhXN 0. XiXsXdXxX4X<X&XxXjXiX-.3 * Q O.u.{ f.+.O.N.BXD   FX",
"FXS gXM.o.+.C.J.J.K.sXZXuX/.Q.p.} g.*.O *.h. .J ~ c c ` +.{ @.#.o.@.d..XdXV FX",
"FXv |.[.| o.i.y.j.p.D..XBX0X2X&X+.` B.0.V.d.@._ o.O.| | o.d.o.O.d.y._ w.bXb.x ",
"FXn '  XaXS.{ +.+.i.@.v.D.%X:XOX].o.g. .g...@.| g.+.o.| +.+.d.| o.O.| o.].(.B ",
"FX. x _ J.kXjX/.p.i.{ o.g.7.*.-.|.BXpX(.e r Q h.} o.#.u.d.| | +.o.| | { N.oX( ",
"FXFXFX  F ( v..XlXvXoXN.C.o.8.a.o.` C.'.* 3 -.}.^.G.M.V.Y e ' Z.H.H.}.pXVXiX~ ",
"FXFXFXFXFXz z B W s.R.uXcXjXG.y.{ +.o._ L c ' T.rXkXlXzX4 4 0.gXrXeX/.F.dXS.D ",
"FXFXFXFXFXFXFXFXFXx V C W v.dXG.o.o.{ +.h.g.o.a.' ~ ^ ..< : Q } } d.b.vX|.' B ",
"FXFXFXFXFXFXFXFXFXFXFXFXx / G..Xy.#.o.} o.O.V.fXmXjXnXfX X/.R.W..XdXnXG.' v FX",
"FXFXFXFXFXFXFXFXFXFXFXFXz ' .X|.d.| o.o.d.d.aX/.( ) ' b.R..XiXkXeXm.D C x FXFX",
"FXFXFXFXFXFXFXFXFXFXFXFXn ~  XG.+.o.| | o.| fXp.M . n x m V x m l   n FXFXFXFX",
"FXFXFXFXFXFXFXFXFXFXFXFXn ' N.XXp.i.| o.i.w.jXp.M FXFXFXFXFXFXFXFXFXFXFXFXFXFX",
"FXFXFXFXFXFXFXFXFXFXFXFXX ! a. XdX}.Z.S.n..XfX_ z FXFXFXFXFXFXFXFXFXFXFXFXFXFX",
"FXFXFXFXFXFXFXFXFXFXFXFXFXz D ) +.~.tXcXsX|.a.C FXFXFXFXFXFXFXFXFXFXFXFXFXFXFX",
"FXFXFXFXFXFXFXFXFXFXFXFXFXFX    n m M b b S M ; FXFXFXFXFXFXFXFXFXFXFXFXFXFXFX",
"FXFXFXFXFXFXFXFXFXFXFXFXFXFXFXFXFXFXFXFXFXFXFXFXFXFXFXFXFXFXFXFXFXFXFXFXFXFXFX"
};
