/* XPM */
static xpm_row_t const rtc_1[] = {
"15 45 7 1",
" 	c None",
".	c #F7F8FE",
"+	c #F6F8FD",
"@	c #F7F8FD",
"#	c #F5F7FD",
"$	c #F6F7FC",
"%	c #F6F8FE",
"               ",
"               ",
"               ",
"               ",
"               ",
"               ",
"               ",
"               ",
"               ",
"               ",
"               ",
"               ",
"               ",
"               ",
"               ",
"        .+     ",
"      @+++     ",
"   #++++++     ",
"  +$#  +++     ",
"       +++     ",
"       +++     ",
"       +++     ",
"       +++     ",
"       +++     ",
"       +++     ",
"       +++     ",
"       +++     ",
"       +++     ",
"       +++     ",
"       +++     ",
"       +++     ",
"       +++     ",
"      %+++$    ",
"   +++++++++++ ",
"               ",
"               ",
"               ",
"               ",
"               ",
"               ",
"               ",
"               ",
"               ",
"               ",
"               "};
