/* XPM */
static xpm_row_t const rtc_0[] = {
"22 45 13 1",
" 	c None",
".	c #F7F8FD",
"+	c #F5F8FD",
"@	c #F6F7FD",
"#	c #F6F8FD",
"$	c #F6F8FC",
"%	c #F6F9FC",
"&	c #F5F7FD",
"*	c #F6F7FC",
"=	c #F6F8FE",
"-	c #F5F9FD",
";	c #F5F8FE",
">	c #F6F9FD",
"                      ",
"                      ",
"                      ",
"                      ",
"                      ",
"                      ",
"                      ",
"                      ",
"                      ",
"                      ",
"                      ",
"                      ",
"                      ",
"                      ",
"                      ",
"        .+@##$        ",
"      %##&  #@##&     ",
"     ##*      *##=    ",
"    ##+        @###   ",
"   *###         ###   ",
"   ###          ###@  ",
"  -##@          $###  ",
"  ###$          ####  ",
"  ###=           ###  ",
"  ###=           ###  ",
"  ###;           ###  ",
"  ####           ###  ",
"  =###          >###  ",
"   ###          ###.  ",
"   ###$         ###   ",
"    ###        *##    ",
"     ##+      -###    ",
"      ###=   ###      ",
"        =####=        ",
"                      ",
"                      ",
"                      ",
"                      ",
"                      ",
"                      ",
"                      ",
"                      ",
"                      ",
"                      ",
"                      "};
