/* XPM */
static xpm_row_t const rtc_2[] = {
"21 45 9 1",
" 	c None",
".	c #F6F8FD",
"+	c #F6F8FC",
"@	c #F5F7FD",
"#	c #F6F8FE",
"$	c #F7F8FD",
"%	c #F6F9FD",
"&	c #F5F9FD",
"*	c #F7F8FE",
"                     ",
"                     ",
"                     ",
"                     ",
"                     ",
"                     ",
"                     ",
"                     ",
"                     ",
"                     ",
"                     ",
"                     ",
"                     ",
"                     ",
"                     ",
"      .+....+@       ",
"   #......$$...$     ",
"  $....@     ...%    ",
"   ...       &...    ",
"   .          ...    ",
"              ...@   ",
"              ...    ",
"              ...    ",
"             ...$    ",
"            &..+     ",
"           $..#      ",
"          +..        ",
"         %..         ",
"       &.*        .  ",
"      .$          .  ",
"    ..           *.  ",
"   ................  ",
"  .................  ",
"  $................  ",
"                     ",
"                     ",
"                     ",
"                     ",
"                     ",
"                     ",
"                     ",
"                     ",
"                     ",
"                     ",
"                     "};
