/* XPM */
static xpm_row_t const rtc_6[] = {
"21 45 14 1",
" 	c None",
".	c #F6F8FC",
"+	c #F6F8FD",
"@	c #F7F8FE",
"#	c #F7F9FD",
"$	c #F6F9FC",
"%	c #F7F8FD",
"&	c #F6F7FD",
"*	c #F5F8FE",
"=	c #F5F7FD",
"-	c #F5F8FD",
";	c #F6F9FD",
">	c #F6F8FE",
",	c #F5F9FD",
"                     ",
"                     ",
"                     ",
"                     ",
"                     ",
"                     ",
"                     ",
"           .++++@    ",
"        #+++++++++   ",
"       $+     .+++   ",
"      ++        +%   ",
"     %+&             ",
"    %++              ",
"    +++              ",
"   &+++              ",
"   +++               ",
"   +++               ",
"  ++++   +%%+++      ",
"  $++*  ++++++++=    ",
"  +++%+-+    +++++   ",
"  ++++;       >+++   ",
"  +++&         ++++  ",
"  +++           +++  ",
"  +++           +++  ",
"  +++           ++++ ",
"  %+++          ++++ ",
"  ;++>          +++  ",
"   +++          +++  ",
"   +++          +++  ",
"   ,++-        +++   ",
"    %++        %+.   ",
"     +++      $++    ",
"      +++>  +;+-     ",
"        @++&++       ",
"                     ",
"                     ",
"                     ",
"                     ",
"                     ",
"                     ",
"                     ",
"                     ",
"                     ",
"                     ",
"                     "};
