/* XPM */
static xpm_row_t const rtc_3[] = {
"21 45 11 1",
" 	c None",
".	c #F6F7FD",
"+	c #F5F8FD",
"@	c #F6F9FD",
"#	c #F6F8FD",
"$	c #F6F8FE",
"%	c #F7F8FD",
"&	c #F7F8FE",
"*	c #F6F9FC",
"=	c #F6F8FC",
"-	c #F5F7FD",
"                     ",
"                     ",
"                     ",
"                     ",
"                     ",
"                     ",
"                     ",
"                     ",
"                     ",
"                     ",
"                     ",
"                     ",
"                     ",
"                     ",
"                     ",
"      .+@#.#+        ",
"   $#####%%###+      ",
"   ####.     ###     ",
"   ##&        ###    ",
"   #          ###    ",
"              ###$   ",
"              ###$   ",
"              ###    ",
"              ###    ",
"             .##     ",
"             ##      ",
"           .#*       ",
"       ####+         ",
"       &&=####-      ",
"            -##.     ",
"              ###    ",
"              @###   ",
"               ###   ",
"               ###%  ",
"               ###%  ",
"               ###   ",
"               ###   ",
"  #            ##.   ",
" ####         .#+    ",
" =###%#      ##=     ",
"  ######@#####       ",
"    -&#.###%         ",
"                     ",
"                     ",
"                     "};
