/* XPM */
static xpm_row_t const rtc_sep_sp[] = {
"12 45 7 1",
" 	c None",
".	c #F7F8FD",
"+	c #F6F8FD",
"@	c #F6F7FD",
"#	c #F5F8FD",
"$	c #F6F8FC",
"%	c #F6F9FD",
"            ",
"            ",
"            ",
"            ",
"            ",
"            ",
"            ",
"            ",
"            ",
"            ",
"            ",
"            ",
"            ",
"            ",
"            ",
"    ...     ",
"    +++@    ",
"   .++++    ",
"    +++#    ",
"     $@     ",
"            ",
"            ",
"            ",
"            ",
"            ",
"            ",
"            ",
"            ",
"            ",
"     $%     ",
"    ++++    ",
"   .++++    ",
"    ++++    ",
"    ...     ",
"            ",
"            ",
"            ",
"            ",
"            ",
"            ",
"            ",
"            ",
"            ",
"            ",
"            "};
